<svg width="12" height="24" viewBox="0 0 12 24" fill="none" xmlns="http://www.w3.org/2000/svg">
<g clip-path="url(#clip0_2234_619)">
<path d="M9.81799 11.7396C9.81196 10.6337 10.3122 9.79901 11.3247 9.18428C10.7582 8.37367 9.90236 7.92769 8.77234 7.8403C7.70258 7.75593 6.53339 8.46408 6.10549 8.46408C5.65348 8.46408 4.61687 7.87044 3.80325 7.87044C2.12178 7.89756 0.334839 9.2114 0.334839 11.8843C0.334839 12.6738 0.479482 13.4894 0.768767 14.3312C1.15448 15.4371 2.54667 18.1491 3.99912 18.1039C4.7585 18.0858 5.29488 17.5645 6.28328 17.5645C7.24153 17.5645 7.73874 18.1039 8.58551 18.1039C10.05 18.0828 11.3096 15.6179 11.6772 14.5089C9.71252 13.5838 9.81799 11.7969 9.81799 11.7396ZM8.11241 6.79164C8.93506 5.8153 8.85973 4.92635 8.83562 4.60693C8.10939 4.64912 7.26866 5.10113 6.78953 5.65861C6.26218 6.25526 5.9518 6.99354 6.0181 7.82524C6.80459 7.8855 7.52178 7.48171 8.11241 6.79164Z" fill="white"/>
</g>
<defs>
<clipPath id="clip0_2234_619">
<path d="M0.214294 3.64307H11.7857V19.0716H0.214294V3.64307Z" fill="white"/>
</clipPath>
</defs>
</svg>
