<svg width="32" height="32" viewBox="0 0 32 32" fill="none" xmlns="http://www.w3.org/2000/svg">
<path d="M16 0C24.8366 0 32 7.16344 32 16C32 24.8366 24.8366 32 16 32C7.16344 32 0 24.8366 0 16C0 7.16344 7.16344 0 16 0Z" fill="#FFD700"/>
<path d="M16 0C24.8366 0 32 7.16344 32 16C32 24.8366 24.8366 32 16 32C7.16344 32 0 24.8366 0 16C0 7.16344 7.16344 0 16 0Z" stroke="#E5E7EB"/>
<path d="M14 10C14.3688 10 14.6667 10.2979 14.6667 10.6667V11.3333H17.3334V10.6667C17.3334 10.2979 17.6313 10 18 10C18.3688 10 18.6667 10.2979 18.6667 10.6667V11.3333H19.6667C20.2188 11.3333 20.6667 11.7812 20.6667 12.3333V13.3333H11.3334V12.3333C11.3334 11.7812 11.7813 11.3333 12.3334 11.3333H13.3334V10.6667C13.3334 10.2979 13.6313 10 14 10ZM11.3334 14H20.6667V19.6667C20.6667 20.2188 20.2188 20.6667 19.6667 20.6667H12.3334C11.7813 20.6667 11.3334 20.2188 11.3334 19.6667V14ZM18.1875 16.3542C18.3834 16.1583 18.3834 15.8417 18.1875 15.6479C17.9917 15.4542 17.675 15.4521 17.4813 15.6479L15.5021 17.6271L14.523 16.6479C14.3271 16.4521 14.0105 16.4521 13.8167 16.6479C13.623 16.8438 13.6209 17.1604 13.8167 17.3542L15.15 18.6875C15.3459 18.8833 15.6625 18.8833 15.8563 18.6875L18.1875 16.3542Z" fill="url(#paint0_linear_2082_77)"/>
<defs>
<linearGradient id="paint0_linear_2082_77" x1="8.03354" y1="13.7712" x2="15.5093" y2="20.3125" gradientUnits="userSpaceOnUse">
<stop/>
<stop offset="0.5" stop-color="#111827"/>
<stop offset="1" stop-color="#1F2937"/>
</linearGradient>
</defs>
</svg>
