<svg width="34" height="44" viewBox="0 0 34 44" fill="none" xmlns="http://www.w3.org/2000/svg">
<path d="M17 0C26.3888 0 34 7.61116 34 17V27C34 36.3888 26.3888 44 17 44C7.61116 44 0 36.3888 0 27V17C0 7.61116 7.61116 0 17 0Z" fill="#2563EB"/>
<path d="M17 0C26.3888 0 34 7.61116 34 17V27C34 36.3888 26.3888 44 17 44C7.61116 44 0 36.3888 0 27V17C0 7.61116 7.61116 0 17 0Z" stroke="#E5E7EB"/>
<path d="M26 33H8V11H26V33Z" stroke="#E5E7EB"/>
<g clip-path="url(#clip0_2087_8)">
<path d="M26 15.0625C26 15.6953 25.4973 16.2789 24.65 16.75C23.627 17.316 22.1012 17.7168 20.3504 17.8363C20.2203 17.773 20.0902 17.7133 19.9531 17.6605C18.568 17.0805 16.7258 16.75 14.75 16.75C14.4582 16.75 14.1734 16.757 13.8887 16.7711L13.85 16.75C13.0027 16.2789 12.5 15.6953 12.5 15.0625C12.5 13.5086 15.5234 12.25 19.25 12.25C22.9766 12.25 26 13.5086 26 15.0625ZM13.6496 17.9137C14.0082 17.8891 14.3773 17.875 14.75 17.875C16.9367 17.875 18.8773 18.3074 20.1113 18.9789C20.9832 19.4535 21.5 20.0441 21.5 20.6875C21.5 20.8281 21.4754 20.9652 21.4262 21.0988C21.2645 21.5629 20.8285 21.9883 20.1957 22.3469C20.1922 22.3504 20.1852 22.3504 20.1816 22.3539C20.1711 22.3609 20.1605 22.3645 20.15 22.3715C18.9195 23.0535 16.9578 23.4965 14.75 23.4965C12.6547 23.4965 10.7809 23.0992 9.53984 22.4734C9.47305 22.4418 9.40977 22.4066 9.34648 22.3715C8.50273 21.9039 8 21.3203 8 20.6875C8 19.4641 9.87734 18.4199 12.5 18.0367C12.8691 17.984 13.2523 17.9418 13.6496 17.9137ZM22.625 20.6875C22.625 19.9176 22.2523 19.2848 21.7777 18.8102C22.7727 18.6555 23.6832 18.4094 24.4566 18.0895C25.0297 17.8504 25.5641 17.5551 26 17.193V18.4375C26 19.116 25.4199 19.7418 24.4602 20.227C23.9469 20.4871 23.3211 20.7086 22.618 20.8773C22.6215 20.8141 22.625 20.7543 22.625 20.691V20.6875ZM21.5 24.0625C21.5 24.6953 20.9973 25.2789 20.15 25.75C20.0867 25.7852 20.0234 25.8168 19.9566 25.852C18.7191 26.4777 16.8453 26.875 14.75 26.875C12.5422 26.875 10.5805 26.432 9.35 25.75C8.50273 25.2789 8 24.6953 8 24.0625V22.818C8.43945 23.1801 8.97031 23.4754 9.54336 23.7145C10.932 24.2945 12.7742 24.625 14.75 24.625C16.7258 24.625 18.568 24.2945 19.9566 23.7145C20.2309 23.602 20.4945 23.4719 20.7441 23.3313C20.9586 23.2117 21.159 23.0781 21.3488 22.9375C21.4016 22.8988 21.4508 22.8566 21.5 22.818V22.9375V23.1379V24.0625ZM22.625 24.0625V22.9375V22.027C23.293 21.8793 23.9082 21.693 24.4566 21.4645C25.0297 21.2254 25.5641 20.9301 26 20.568V21.8125C26 22.1816 25.8242 22.5508 25.4762 22.8988C24.9031 23.4719 23.8941 23.943 22.618 24.2488C22.6215 24.1891 22.625 24.1258 22.625 24.0625ZM14.75 28C16.7258 28 18.568 27.6695 19.9566 27.0895C20.5297 26.8504 21.0641 26.5551 21.5 26.193V27.4375C21.5 28.9914 18.4766 30.25 14.75 30.25C11.0234 30.25 8 28.9914 8 27.4375V26.193C8.43945 26.5551 8.97031 26.8504 9.54336 27.0895C10.932 27.6695 12.7742 28 14.75 28Z" fill="white"/>
</g>
<defs>
<clipPath id="clip0_2087_8">
<path d="M8 12.25H26V30.25H8V12.25Z" fill="white"/>
</clipPath>
</defs>
</svg>
