<svg width="17" height="15" viewBox="0 0 17 15" fill="none" xmlns="http://www.w3.org/2000/svg">
<path d="M3.77315 0.351967C3.91862 0.154768 4.15138 0.0351562 4.39707 0.0351562H12.1557C12.4014 0.0351562 12.6341 0.151536 12.7796 0.351967L16.4003 5.26576C16.6201 5.56317 16.5975 5.97373 16.3518 6.24852L8.85181 14.5244C8.70634 14.686 8.49621 14.7798 8.27638 14.7798C8.05655 14.7798 7.84966 14.686 7.70095 14.5244L0.200948 6.24852C-0.0479742 5.97373 -0.0673707 5.56317 0.152457 5.26576L3.77315 0.351967ZM5.01776 1.6386C4.91108 1.71942 4.88198 1.8649 4.94987 1.97804L6.80547 5.06856L2.04685 5.46619C1.91431 5.47589 1.81086 5.58904 1.81086 5.72481C1.81086 5.86059 1.91431 5.9705 2.04685 5.98343L8.25375 6.50067C8.26668 6.50067 8.28285 6.50067 8.29578 6.50067L14.5027 5.98343C14.6352 5.97373 14.7387 5.86059 14.7387 5.72481C14.7387 5.58904 14.6352 5.47912 14.5027 5.46619L9.74728 5.07179L11.6029 1.98128C11.6708 1.86813 11.6417 1.71942 11.535 1.64184C11.4283 1.56425 11.2796 1.57718 11.1891 1.67416L8.27638 4.8261L5.36366 1.67093C5.27315 1.57395 5.12444 1.56102 5.01776 1.6386Z" fill="#50C878"/>
</svg>
