<svg width="52" height="32" viewBox="0 0 52 32" fill="none" xmlns="http://www.w3.org/2000/svg">
<path d="M8 0.5H44C48.1421 0.5 51.5 3.85786 51.5 8V24C51.5 28.1421 48.1421 31.5 44 31.5H8C3.85786 31.5 0.5 28.1421 0.5 24V8C0.5 3.85786 3.85786 0.5 8 0.5Z" fill="#1A1A1A"/>
<path d="M8 0.5H44C48.1421 0.5 51.5 3.85786 51.5 8V24C51.5 28.1421 48.1421 31.5 44 31.5H8C3.85786 31.5 0.5 28.1421 0.5 24V8C0.5 3.85786 3.85786 0.5 8 0.5Z" stroke="#374151"/>
<g clip-path="url(#clip0_2240_317)">
<path d="M26 9C23.475 9 21.4531 10.15 19.9812 11.5187C18.5187 12.875 17.5406 14.5 17.0781 15.6156C16.975 15.8625 16.975 16.1375 17.0781 16.3844C17.5406 17.5 18.5187 19.125 19.9812 20.4812C21.4531 21.85 23.475 23 26 23C28.525 23 30.5468 21.85 32.0187 20.4812C33.4812 19.1219 34.4593 17.5 34.9249 16.3844C35.0281 16.1375 35.0281 15.8625 34.9249 15.6156C34.4593 14.5 33.4812 12.875 32.0187 11.5187C30.5468 10.15 28.525 9 26 9ZM21.5 16C21.5 14.8065 21.9741 13.6619 22.818 12.818C23.6619 11.9741 24.8065 11.5 26 11.5C27.1934 11.5 28.338 11.9741 29.1819 12.818C30.0258 13.6619 30.5 14.8065 30.5 16C30.5 17.1935 30.0258 18.3381 29.1819 19.182C28.338 20.0259 27.1934 20.5 26 20.5C24.8065 20.5 23.6619 20.0259 22.818 19.182C21.9741 18.3381 21.5 17.1935 21.5 16ZM26 14C26 15.1031 25.1031 16 24 16C23.7781 16 23.5656 15.9625 23.3656 15.8969C23.1937 15.8406 22.9937 15.9469 23 16.1281C23.0093 16.3438 23.0406 16.5594 23.1 16.775C23.5281 18.375 25.175 19.325 26.775 18.8969C28.375 18.4688 29.325 16.8219 28.8968 15.2219C28.55 13.925 27.4031 13.0531 26.1281 13C25.9468 12.9938 25.8406 13.1906 25.8968 13.3656C25.9625 13.5656 26 13.7781 26 14Z" fill="#A1A1A1"/>
</g>
<defs>
<clipPath id="clip0_2240_317">
<rect width="18" height="16" fill="white" transform="translate(17 8)"/>
</clipPath>
</defs>
</svg>
