<svg width="16" height="17" viewBox="0 0 16 17" fill="none" xmlns="http://www.w3.org/2000/svg">
<g clip-path="url(#clip0_2234_614)">
<path d="M15.3527 8.53178C15.3527 12.7957 12.4327 15.8302 8.12055 15.8302C3.98618 15.8302 0.647339 12.4914 0.647339 8.357C0.647339 4.22263 3.98618 0.883789 8.12055 0.883789C10.1335 0.883789 11.827 1.62207 13.1318 2.83948L11.0978 4.79517C8.43696 2.22776 3.48897 4.15633 3.48897 8.357C3.48897 10.9636 5.57122 13.076 8.12055 13.076C11.0797 13.076 12.1886 10.9545 12.3634 9.85466H8.12055V7.28424H15.2352C15.3045 7.66694 15.3527 8.03457 15.3527 8.53178Z" fill="#111827"/>
</g>
<defs>
<clipPath id="clip0_2234_614">
<path d="M0.647339 0.643066H15.3527V16.0716H0.647339V0.643066Z" fill="white"/>
</clipPath>
</defs>
</svg>
