<svg width="32" height="32" viewBox="0 0 32 32" fill="none" xmlns="http://www.w3.org/2000/svg">
<path d="M16 0C24.8366 0 32 7.16344 32 16C32 24.8366 24.8366 32 16 32C7.16344 32 0 24.8366 0 16C0 7.16344 7.16344 0 16 0Z" fill="#CED4DA"/>
<path d="M16 0C24.8366 0 32 7.16344 32 16C32 24.8366 24.8366 32 16 32C7.16344 32 0 24.8366 0 16C0 7.16344 7.16344 0 16 0Z" stroke="white"/>
<path d="M14.6521 10.113C14.8146 9.96094 15.0667 9.96303 15.2292 10.1151C15.8042 10.6547 16.3438 11.2359 16.848 11.8651C17.0771 11.5651 17.3375 11.238 17.6188 10.9714C17.7834 10.8172 18.0375 10.8172 18.2021 10.9734C18.923 11.6609 19.5334 12.5693 19.9625 13.4318C20.3855 14.2818 20.6667 15.1505 20.6667 15.763C20.6667 18.4214 18.5875 20.6672 16 20.6672C13.3834 20.6672 11.3334 18.4193 11.3334 15.7609C11.3334 14.9609 11.7042 13.9839 12.2792 13.0172C12.8605 12.0359 13.6813 11.013 14.6521 10.113ZM16.0355 18.6672C16.5625 18.6672 17.0292 18.5214 17.4688 18.2297C18.3459 17.6172 18.5813 16.3922 18.0542 15.4297C17.9605 15.2422 17.7209 15.2297 17.5855 15.388L17.0605 15.9984C16.923 16.1568 16.675 16.1526 16.5459 15.988C16.2021 15.5505 15.5875 14.7693 15.2375 14.3255C15.1063 14.1589 14.8563 14.1568 14.723 14.3234C14.0188 15.2089 13.6646 15.7672 13.6646 16.3943C13.6667 17.8214 14.7209 18.6672 16.0355 18.6672Z" fill="url(#paint0_linear_2082_103)"/>
<defs>
<linearGradient id="paint0_linear_2082_103" x1="8.03354" y1="13.7714" x2="15.5096" y2="20.3126" gradientUnits="userSpaceOnUse">
<stop stop-color="white"/>
<stop offset="1" stop-color="#F9FAFB"/>
</linearGradient>
</defs>
</svg>
