<svg width="32" height="32" viewBox="0 0 32 32" fill="none" xmlns="http://www.w3.org/2000/svg">
<path d="M16 0C24.8366 0 32 7.16344 32 16C32 24.8366 24.8366 32 16 32C7.16344 32 0 24.8366 0 16C0 7.16344 7.16344 0 16 0Z" fill="#CED4DA"/>
<path d="M16 0C24.8366 0 32 7.16344 32 16C32 24.8366 24.8366 32 16 32C7.16344 32 0 24.8366 0 16C0 7.16344 7.16344 0 16 0Z" stroke="white"/>
<path d="M10.752 10.7958C10.6958 10.7125 10.6666 10.6125 10.6666 10.5125C10.6666 10.2292 10.8958 10 11.1791 10H13.4562C13.6895 10 13.9083 10.1229 14.027 10.3229L15.4541 12.7C14.45 12.8271 13.552 13.2958 12.8833 13.9896L10.752 10.7958ZM21.2458 10.7958L19.1166 13.9896C18.4479 13.2958 17.55 12.8271 16.5458 12.7L17.9729 10.3229C18.0937 10.1229 18.3104 10 18.5437 10H20.8208C21.1041 10 21.3333 10.2292 21.3333 10.5125C21.3333 10.6125 21.3041 10.7125 21.2479 10.7958H21.2458ZM12.3333 17C12.3333 16.0275 12.7196 15.0949 13.4072 14.4073C14.0949 13.7196 15.0275 13.3333 16 13.3333C16.9724 13.3333 17.9051 13.7196 18.5927 14.4073C19.2803 15.0949 19.6666 16.0275 19.6666 17C19.6666 17.9725 19.2803 18.9051 18.5927 19.5927C17.9051 20.2804 16.9724 20.6667 16 20.6667C15.0275 20.6667 14.0949 20.2804 13.4072 19.5927C12.7196 18.9051 12.3333 17.9725 12.3333 17ZM16.175 15.0229C16.1041 14.8771 15.8979 14.8771 15.825 15.0229L15.3583 15.9688C15.3291 16.0271 15.275 16.0667 15.2125 16.075L14.1666 16.2271C14.0062 16.25 13.9437 16.4458 14.0583 16.5604L14.8145 17.2979C14.8604 17.3438 14.8812 17.4063 14.8708 17.4708L14.6916 18.5104C14.6645 18.6687 14.8312 18.7917 14.975 18.7167L15.9083 18.225C15.9645 18.1958 16.0333 18.1958 16.0895 18.225L17.0229 18.7167C17.1666 18.7917 17.3333 18.6708 17.3062 18.5104L17.127 17.4708C17.1166 17.4083 17.1375 17.3438 17.1833 17.2979L17.9395 16.5604C18.0562 16.4479 17.9916 16.2521 17.8312 16.2271L16.7875 16.075C16.725 16.0667 16.6687 16.025 16.6416 15.9688L16.175 15.0229Z" fill="url(#paint0_linear_2082_112)"/>
<defs>
<linearGradient id="paint0_linear_2082_112" x1="6.89539" y1="13.7712" x2="14.4379" y2="21.3137" gradientUnits="userSpaceOnUse">
<stop stop-color="white"/>
<stop offset="1" stop-color="#F9FAFB"/>
</linearGradient>
</defs>
</svg>
