<svg width="32" height="32" viewBox="0 0 32 32" fill="none" xmlns="http://www.w3.org/2000/svg">
<path d="M16 0C24.8366 0 32 7.16344 32 16C32 24.8366 24.8366 32 16 32C7.16344 32 0 24.8366 0 16C0 7.16344 7.16344 0 16 0Z" fill="#CED4DA"/>
<path d="M16 0C24.8366 0 32 7.16344 32 16C32 24.8366 24.8366 32 16 32C7.16344 32 0 24.8366 0 16C0 7.16344 7.16344 0 16 0Z" stroke="white"/>
<path d="M16.4375 12.2087C16.675 12.0628 16.8333 11.7982 16.8333 11.5003C16.8333 11.0399 16.4604 10.667 16 10.667C15.5396 10.667 15.1667 11.0399 15.1667 11.5003C15.1667 11.8003 15.325 12.0628 15.5625 12.2087L14.3688 14.5962C14.1792 14.9753 13.6875 15.0837 13.3563 14.8191L11.5 13.3337C11.6042 13.1941 11.6667 13.0212 11.6667 12.8337C11.6667 12.3732 11.2938 12.0003 10.8333 12.0003C10.3729 12.0003 10 12.3732 10 12.8337C10 13.2941 10.3729 13.667 10.8333 13.667C10.8375 13.667 10.8438 13.667 10.8479 13.667L11.8 18.9045C11.9146 19.5378 12.4667 20.0003 13.1125 20.0003H18.8875C19.5312 20.0003 20.0833 19.5399 20.2 18.9045L21.1521 13.667C21.1562 13.667 21.1625 13.667 21.1667 13.667C21.6271 13.667 22 13.2941 22 12.8337C22 12.3732 21.6271 12.0003 21.1667 12.0003C20.7063 12.0003 20.3333 12.3732 20.3333 12.8337C20.3333 13.0212 20.3958 13.1941 20.5 13.3337L18.6438 14.8191C18.3125 15.0837 17.8208 14.9753 17.6312 14.5962L16.4375 12.2087Z" fill="url(#paint0_linear_2082_120)"/>
<defs>
<linearGradient id="paint0_linear_2082_120" x1="5.75736" y1="13.9668" x2="12.154" y2="22.191" gradientUnits="userSpaceOnUse">
<stop stop-color="white"/>
<stop offset="1" stop-color="#F9FAFB"/>
</linearGradient>
</defs>
</svg>
