<svg width="19" height="15" viewBox="0 0 19 15" fill="none" xmlns="http://www.w3.org/2000/svg">
<path d="M9.98922 2.39224C10.3578 2.16595 10.6034 1.75539 10.6034 1.2931C10.6034 0.578664 10.0248 0 9.31034 0C8.5959 0 8.01724 0.578664 8.01724 1.2931C8.01724 1.75862 8.26293 2.16595 8.63146 2.39224L6.77909 6.09698C6.48491 6.68535 5.72198 6.85345 5.20797 6.44289L2.32759 4.13793C2.48922 3.92134 2.58621 3.65302 2.58621 3.36207C2.58621 2.64763 2.00754 2.06897 1.2931 2.06897C0.578664 2.06897 0 2.64763 0 3.36207C0 4.07651 0.578664 4.65517 1.2931 4.65517C1.29957 4.65517 1.30927 4.65517 1.31573 4.65517L2.7931 12.7823C2.97091 13.7651 3.82759 14.4828 4.82974 14.4828H13.7909C14.7899 14.4828 15.6466 13.7683 15.8276 12.7823L17.305 4.65517C17.3114 4.65517 17.3211 4.65517 17.3276 4.65517C18.042 4.65517 18.6207 4.07651 18.6207 3.36207C18.6207 2.64763 18.042 2.06897 17.3276 2.06897C16.6131 2.06897 16.0345 2.64763 16.0345 3.36207C16.0345 3.65302 16.1315 3.92134 16.2931 4.13793L13.4127 6.44289C12.8987 6.85345 12.1358 6.68535 11.8416 6.09698L9.98922 2.39224Z" fill="#FFD700"/>
</svg>
