<svg width="32" height="32" viewBox="0 0 32 32" fill="none" xmlns="http://www.w3.org/2000/svg">
<path d="M16 0C24.8366 0 32 7.16344 32 16C32 24.8366 24.8366 32 16 32C7.16344 32 0 24.8366 0 16C0 7.16344 7.16344 0 16 0Z" fill="#2563EB"/>
<path d="M16 0C24.8366 0 32 7.16344 32 16C32 24.8366 24.8366 32 16 32C7.16344 32 0 24.8366 0 16C0 7.16344 7.16344 0 16 0Z" stroke="#E5E7EB"/>
<path d="M11.3334 12.6667C11.3334 11.9594 11.6143 11.2811 12.1144 10.781C12.6145 10.281 13.2928 10 14 10C14.7073 10 15.3856 10.281 15.8857 10.781C16.3858 11.2811 16.6667 11.9594 16.6667 12.6667C16.6667 13.3739 16.3858 14.0522 15.8857 14.5523C15.3856 15.0524 14.7073 15.3333 14 15.3333C13.2928 15.3333 12.6145 15.0524 12.1144 14.5523C11.6143 14.0522 11.3334 13.3739 11.3334 12.6667ZM9.33337 20.0479C9.33337 17.9958 10.9959 16.3333 13.048 16.3333H14.9521C17.0042 16.3333 18.6667 17.9958 18.6667 20.0479C18.6667 20.3896 18.3896 20.6667 18.048 20.6667H9.95212C9.61046 20.6667 9.33337 20.3896 9.33337 20.0479ZM22.0271 20.6667H19.1542C19.2667 20.4708 19.3334 20.2438 19.3334 20V19.8333C19.3334 18.5688 18.7688 17.4333 17.8792 16.6708C17.9292 16.6688 17.9771 16.6667 18.0271 16.6667H19.3063C21.1625 16.6667 22.6667 18.1708 22.6667 20.0271C22.6667 20.3813 22.3792 20.6667 22.0271 20.6667ZM18.3334 15.3333C17.6875 15.3333 17.1042 15.0708 16.6813 14.6479C17.0917 14.0938 17.3334 13.4083 17.3334 12.6667C17.3334 12.1083 17.1959 11.5813 16.9521 11.1188C17.3396 10.8354 17.8167 10.6667 18.3334 10.6667C19.623 10.6667 20.6667 11.7104 20.6667 13C20.6667 14.2896 19.623 15.3333 18.3334 15.3333Z" fill="url(#paint0_linear_2082_94)"/>
<defs>
<linearGradient id="paint0_linear_2082_94" x1="4.61933" y1="13.7712" x2="11.9778" y2="22.9694" gradientUnits="userSpaceOnUse">
<stop stop-color="white"/>
<stop offset="1" stop-color="#F9FAFB"/>
</linearGradient>
</defs>
</svg>
