<svg width="41" height="54" viewBox="0 0 41 54" fill="none" xmlns="http://www.w3.org/2000/svg">
<g filter="url(#filter0_d_4021_1220)">
<path d="M11 20.25C11 15.1414 15.1414 11 20.25 11C25.3586 11 29.5 15.1414 29.5 20.25V33.75C29.5 38.8586 25.3586 43 20.25 43C15.1414 43 11 38.8586 11 33.75V20.25Z" fill="url(#paint0_linear_4021_1220)" shape-rendering="crispEdges"/>
<g clip-path="url(#clip0_4021_1220)">
<path d="M23.1891 22.5455C23.3273 22.2244 23.2242 21.8494 22.9406 21.6432C22.657 21.4369 22.2703 21.4557 22.0055 21.6854L16.0055 26.9354C15.7711 27.1416 15.6867 27.4721 15.7969 27.7627C15.907 28.0533 16.1883 28.2502 16.5 28.2502H19.1133L17.3109 32.4549C17.1727 32.776 17.2758 33.151 17.5594 33.3572C17.843 33.5635 18.2297 33.5447 18.4945 33.3151L24.4945 28.0651C24.7289 27.8588 24.8133 27.5283 24.7031 27.2377C24.593 26.9471 24.3141 26.7526 24 26.7526H21.3867L23.1891 22.5455Z" fill="#FFD700"/>
</g>
</g>
<defs>
<filter id="filter0_d_4021_1220" x="0" y="0" width="40.5" height="54" filterUnits="userSpaceOnUse" color-interpolation-filters="sRGB">
<feFlood flood-opacity="0" result="BackgroundImageFix"/>
<feColorMatrix in="SourceAlpha" type="matrix" values="0 0 0 0 0 0 0 0 0 0 0 0 0 0 0 0 0 0 127 0" result="hardAlpha"/>
<feMorphology radius="3" operator="dilate" in="SourceAlpha" result="effect1_dropShadow_4021_1220"/>
<feOffset/>
<feGaussianBlur stdDeviation="4"/>
<feComposite in2="hardAlpha" operator="out"/>
<feColorMatrix type="matrix" values="0 0 0 0 0 0 0 0 0 0 0 0 0 0 0 0 0 0 0.25 0"/>
<feBlend mode="normal" in2="BackgroundImageFix" result="effect1_dropShadow_4021_1220"/>
<feBlend mode="normal" in="SourceGraphic" in2="effect1_dropShadow_4021_1220" result="shape"/>
</filter>
<linearGradient id="paint0_linear_4021_1220" x1="4.45926" y1="22.3137" x2="24.0683" y2="33.6502" gradientUnits="userSpaceOnUse">
<stop/>
<stop offset="0.5" stop-color="#111827"/>
<stop offset="1" stop-color="#1F2937"/>
</linearGradient>
<clipPath id="clip0_4021_1220">
<rect width="10.5" height="12" fill="white" transform="translate(15 21.5)"/>
</clipPath>
</defs>
</svg>
