<svg width="32" height="32" viewBox="0 0 32 32" fill="none" xmlns="http://www.w3.org/2000/svg">
<rect width="32" height="32" rx="8" fill="#E6C669" fill-opacity="0.32"/>
<path d="M7.25 11C7.25 9.67392 7.77678 8.40215 8.71447 7.46447C9.65215 6.52678 10.9239 6 12.25 6C13.5761 6 14.8479 6.52678 15.7855 7.46447C16.7232 8.40215 17.25 9.67392 17.25 11C17.25 12.3261 16.7232 13.5979 15.7855 14.5355C14.8479 15.4732 13.5761 16 12.25 16C10.9239 16 9.65215 15.4732 8.71447 14.5355C7.77678 13.5979 7.25 12.3261 7.25 11ZM3.5 24.8398C3.5 20.9922 6.61719 17.875 10.4648 17.875H14.0352C17.8828 17.875 21 20.9922 21 24.8398C21 25.4805 20.4805 26 19.8398 26H4.66016C4.01953 26 3.5 25.4805 3.5 24.8398ZM27.3008 26H21.9141C22.125 25.6328 22.25 25.207 22.25 24.75V24.4375C22.25 22.0664 21.1914 19.9375 19.5234 18.5078C19.6172 18.5039 19.707 18.5 19.8008 18.5H22.1992C25.6797 18.5 28.5 21.3203 28.5 24.8008C28.5 25.4648 27.9609 26 27.3008 26ZM20.375 16C19.1641 16 18.0703 15.5078 17.2773 14.7148C18.0469 13.6758 18.5 12.3906 18.5 11C18.5 9.95312 18.2422 8.96484 17.7852 8.09766C18.5117 7.56641 19.4062 7.25 20.375 7.25C22.793 7.25 24.75 9.20703 24.75 11.625C24.75 14.043 22.793 16 20.375 16Z" fill="#50C878"/>
</svg>
