<svg width="32" height="32" viewBox="0 0 32 32" fill="none" xmlns="http://www.w3.org/2000/svg">
<rect width="32" height="32" rx="8" fill="#FFD700" fill-opacity="0.2"/>
<path d="M16.8705 8.56244C16.7099 8.21873 16.3705 8 15.9978 8C15.6251 8 15.2888 8.21873 15.1252 8.56244L13.1769 12.6963L8.82586 13.3588C8.46227 13.415 8.15927 13.6775 8.04716 14.0368C7.93505 14.3962 8.02595 14.793 8.28653 15.0586L11.4438 18.2801L10.6984 22.8327C10.6378 23.2077 10.7893 23.5889 11.0893 23.8107C11.3892 24.0326 11.7862 24.0607 12.1134 23.8826L16.0009 21.7422L19.8883 23.8826C20.2156 24.0607 20.6125 24.0357 20.9124 23.8107C21.2124 23.5858 21.3639 23.2077 21.3033 22.8327L20.5549 18.2801L23.7121 15.0586C23.9727 14.793 24.0667 14.3962 23.9515 14.0368C23.8364 13.6775 23.5364 13.415 23.1728 13.3588L18.8187 12.6963L16.8705 8.56244Z" fill="#FFD700"/>
</svg>
