<svg width="32" height="32" viewBox="0 0 32 32" fill="none" xmlns="http://www.w3.org/2000/svg">
<rect width="32" height="32" rx="8" fill="#E6C669" fill-opacity="0.32"/>
<path d="M11.9424 7.806C12.3291 8.15366 12.3604 8.7435 12.0127 9.13022L9.2002 12.2552C9.02832 12.4466 8.78613 12.5599 8.52832 12.5638C8.27051 12.5677 8.02441 12.4701 7.84082 12.2904L6.27441 10.7279C5.91113 10.3607 5.91113 9.76694 6.27441 9.39975C6.6377 9.03257 7.23535 9.03257 7.59863 9.39975L8.46191 10.263L10.6143 7.87241C10.9619 7.48569 11.5518 7.45444 11.9385 7.8021L11.9424 7.806ZM11.9424 14.056C12.3291 14.4037 12.3604 14.9935 12.0127 15.3802L9.2002 18.5052C9.02832 18.6966 8.78613 18.8099 8.52832 18.8138C8.27051 18.8177 8.02441 18.7201 7.84082 18.5404L6.27441 16.9779C5.90723 16.6107 5.90723 16.0169 6.27441 15.6537C6.6416 15.2904 7.23535 15.2865 7.59863 15.6537L8.46191 16.5169L10.6143 14.1263C10.9619 13.7396 11.5518 13.7083 11.9385 14.056H11.9424ZM14.751 10.0638C14.751 9.37241 15.3096 8.81382 16.001 8.81382H24.751C25.4424 8.81382 26.001 9.37241 26.001 10.0638C26.001 10.7552 25.4424 11.3138 24.751 11.3138H16.001C15.3096 11.3138 14.751 10.7552 14.751 10.0638ZM14.751 16.3138C14.751 15.6224 15.3096 15.0638 16.001 15.0638H24.751C25.4424 15.0638 26.001 15.6224 26.001 16.3138C26.001 17.0052 25.4424 17.5638 24.751 17.5638H16.001C15.3096 17.5638 14.751 17.0052 14.751 16.3138ZM12.251 22.5638C12.251 21.8724 12.8096 21.3138 13.501 21.3138H24.751C25.4424 21.3138 26.001 21.8724 26.001 22.5638C26.001 23.2552 25.4424 23.8138 24.751 23.8138H13.501C12.8096 23.8138 12.251 23.2552 12.251 22.5638ZM7.87598 20.6888C8.37326 20.6888 8.85017 20.8864 9.2018 21.238C9.55343 21.5896 9.75098 22.0665 9.75098 22.5638C9.75098 23.0611 9.55343 23.538 9.2018 23.8896C8.85017 24.2413 8.37326 24.4388 7.87598 24.4388C7.3787 24.4388 6.90178 24.2413 6.55015 23.8896C6.19852 23.538 6.00098 23.0611 6.00098 22.5638C6.00098 22.0665 6.19852 21.5896 6.55015 21.238C6.90178 20.8864 7.3787 20.6888 7.87598 20.6888Z" fill="#FFD700"/>
</svg>
