<svg width="32" height="32" viewBox="0 0 32 32" fill="none" xmlns="http://www.w3.org/2000/svg">
<rect width="32" height="32" rx="8" fill="#007AFF" fill-opacity="0.2"/>
<path d="M13.6893 7.19072C13.9679 6.93409 14.4 6.93761 14.6786 7.19424C15.6643 8.10474 16.5893 9.08555 17.4536 10.1472C17.8464 9.64099 18.2929 9.08907 18.775 8.63909C19.0571 8.37894 19.4929 8.37894 19.775 8.6426C21.0107 9.8027 22.0571 11.3354 22.7929 12.7908C23.5179 14.2251 24 15.6911 24 16.7246C24 21.2103 20.4357 25 16 25C11.5143 25 8 21.2068 8 16.7211C8 15.3712 8.63571 13.7224 9.62143 12.0913C10.6179 10.4355 12.025 8.7094 13.6893 7.19072ZM16.0607 21.6252C16.9643 21.6252 17.7643 21.3791 18.5179 20.8869C20.0214 19.8534 20.425 17.7863 19.5214 16.1622C19.3607 15.8458 18.95 15.8247 18.7179 16.0918L17.8179 17.1219C17.5821 17.389 17.1571 17.382 16.9357 17.1043C16.3464 16.3661 15.2929 15.0478 14.6929 14.299C14.4679 14.0177 14.0393 14.0142 13.8107 14.2954C12.6036 15.7895 11.9964 16.7317 11.9964 17.7898C12 20.1979 13.8071 21.6252 16.0607 21.6252Z" fill="#007AFF"/>
</svg>
