<svg width="32" height="32" viewBox="0 0 32 32" fill="none" xmlns="http://www.w3.org/2000/svg">
<rect width="32" height="32" rx="8" fill="#E6C669" fill-opacity="0.32"/>
<path d="M7.25 8.5C5.87109 8.5 4.75 9.62109 4.75 11V13.5C4.75 13.8438 5.03906 14.1133 5.36328 14.2266C6.09766 14.4805 6.625 15.1797 6.625 16C6.625 16.8203 6.09766 17.5195 5.36328 17.7734C5.03906 17.8867 4.75 18.1562 4.75 18.5V21C4.75 22.3789 5.87109 23.5 7.25 23.5H24.75C26.1289 23.5 27.25 22.3789 27.25 21V18.5C27.25 18.1562 26.9609 17.8867 26.6367 17.7734C25.9023 17.5195 25.375 16.8203 25.375 16C25.375 15.1797 25.9023 14.4805 26.6367 14.2266C26.9609 14.1133 27.25 13.8438 27.25 13.5V11C27.25 9.62109 26.1289 8.5 24.75 8.5H7.25ZM9.75 12.875V19.125C9.75 19.4688 10.0312 19.75 10.375 19.75H21.625C21.9688 19.75 22.25 19.4688 22.25 19.125V12.875C22.25 12.5312 21.9688 12.25 21.625 12.25H10.375C10.0312 12.25 9.75 12.5312 9.75 12.875ZM8.5 12.25C8.5 11.5586 9.05859 11 9.75 11H22.25C22.9414 11 23.5 11.5586 23.5 12.25V19.75C23.5 20.4414 22.9414 21 22.25 21H9.75C9.05859 21 8.5 20.4414 8.5 19.75V12.25Z" fill="#FFD700"/>
</svg>
