<svg width="32" height="32" viewBox="0 0 32 32" fill="none" xmlns="http://www.w3.org/2000/svg">
<rect width="32" height="32" rx="8" fill="#FFD700" fill-opacity="0.2"/>
<path d="M8.12812 9.19375C8.04375 9.06875 8 8.91875 8 8.76875C8 8.34375 8.34375 8 8.76875 8H12.1844C12.5344 8 12.8625 8.18437 13.0406 8.48438L15.1813 12.05C13.675 12.2406 12.3281 12.9437 11.325 13.9844L8.12812 9.19375ZM23.8687 9.19375L20.675 13.9844C19.6719 12.9437 18.325 12.2406 16.8188 12.05L18.9594 8.48438C19.1406 8.18437 19.4656 8 19.8156 8H23.2312C23.6562 8 24 8.34375 24 8.76875C24 8.91875 23.9563 9.06875 23.8719 9.19375H23.8687ZM10.5 18.5C10.5 17.0413 11.0795 15.6424 12.1109 14.6109C13.1424 13.5795 14.5413 13 16 13C17.4587 13 18.8576 13.5795 19.8891 14.6109C20.9205 15.6424 21.5 17.0413 21.5 18.5C21.5 19.9587 20.9205 21.3576 19.8891 22.3891C18.8576 23.4205 17.4587 24 16 24C14.5413 24 13.1424 23.4205 12.1109 22.3891C11.0795 21.3576 10.5 19.9587 10.5 18.5ZM16.2625 15.5344C16.1562 15.3156 15.8469 15.3156 15.7375 15.5344L15.0375 16.9531C14.9938 17.0406 14.9125 17.1 14.8187 17.1125L13.25 17.3406C13.0094 17.375 12.9156 17.6687 13.0875 17.8406L14.2219 18.9469C14.2906 19.0156 14.3219 19.1094 14.3063 19.2063L14.0375 20.7656C13.9969 21.0031 14.2469 21.1875 14.4625 21.075L15.8625 20.3375C15.9469 20.2937 16.05 20.2937 16.1344 20.3375L17.5344 21.075C17.75 21.1875 18 21.0063 17.9594 20.7656L17.6906 19.2063C17.675 19.1125 17.7062 19.0156 17.775 18.9469L18.9094 17.8406C19.0844 17.6719 18.9875 17.3781 18.7469 17.3406L17.1812 17.1125C17.0875 17.1 17.0031 17.0375 16.9625 16.9531L16.2625 15.5344Z" fill="#50C878"/>
</svg>
