<svg width="32" height="32" viewBox="0 0 32 32" fill="none" xmlns="http://www.w3.org/2000/svg">
<rect width="32" height="32" rx="8" fill="#E6C669" fill-opacity="0.32"/>
<path d="M26 9.125C26 9.82812 25.4414 10.4766 24.5 11C23.3633 11.6289 21.668 12.0742 19.7227 12.207C19.5781 12.1367 19.4336 12.0703 19.2812 12.0117C17.7422 11.3672 15.6953 11 13.5 11C13.1758 11 12.8594 11.0078 12.543 11.0234L12.5 11C11.5586 10.4766 11 9.82812 11 9.125C11 7.39844 14.3594 6 18.5 6C22.6406 6 26 7.39844 26 9.125ZM12.2773 12.293C12.6758 12.2656 13.0859 12.25 13.5 12.25C15.9297 12.25 18.0859 12.7305 19.457 13.4766C20.4258 14.0039 21 14.6602 21 15.375C21 15.5312 20.9727 15.6836 20.918 15.832C20.7383 16.3477 20.2539 16.8203 19.5508 17.2188C19.5469 17.2227 19.5391 17.2227 19.5352 17.2266C19.5234 17.2344 19.5117 17.2383 19.5 17.2461C18.1328 18.0039 15.9531 18.4961 13.5 18.4961C11.1719 18.4961 9.08984 18.0547 7.71094 17.3594C7.63672 17.3242 7.56641 17.2852 7.49609 17.2461C6.55859 16.7266 6 16.0781 6 15.375C6 14.0156 8.08594 12.8555 11 12.4297C11.4102 12.3711 11.8359 12.3242 12.2773 12.293ZM22.25 15.375C22.25 14.5195 21.8359 13.8164 21.3086 13.2891C22.4141 13.1172 23.4258 12.8438 24.2852 12.4883C24.9219 12.2227 25.5156 11.8945 26 11.4922V12.875C26 13.6289 25.3555 14.3242 24.2891 14.8633C23.7188 15.1523 23.0234 15.3984 22.2422 15.5859C22.2461 15.5156 22.25 15.4492 22.25 15.3789V15.375ZM21 19.125C21 19.8281 20.4414 20.4766 19.5 21C19.4297 21.0391 19.3594 21.0742 19.2852 21.1133C17.9102 21.8086 15.8281 22.25 13.5 22.25C11.0469 22.25 8.86719 21.7578 7.5 21C6.55859 20.4766 6 19.8281 6 19.125V17.7422C6.48828 18.1445 7.07813 18.4727 7.71484 18.7383C9.25781 19.3828 11.3047 19.75 13.5 19.75C15.6953 19.75 17.7422 19.3828 19.2852 18.7383C19.5898 18.6133 19.8828 18.4688 20.1602 18.3125C20.3984 18.1797 20.6211 18.0312 20.832 17.875C20.8906 17.832 20.9453 17.7852 21 17.7422V17.875V18.0977V19.125ZM22.25 19.125V17.875V16.8633C22.9922 16.6992 23.6758 16.4922 24.2852 16.2383C24.9219 15.9727 25.5156 15.6445 26 15.2422V16.625C26 17.0352 25.8047 17.4453 25.418 17.832C24.7812 18.4688 23.6602 18.9922 22.2422 19.332C22.2461 19.2656 22.25 19.1953 22.25 19.125ZM13.5 23.5C15.6953 23.5 17.7422 23.1328 19.2852 22.4883C19.9219 22.2227 20.5156 21.8945 21 21.4922V22.875C21 24.6016 17.6406 26 13.5 26C9.35938 26 6 24.6016 6 22.875V21.4922C6.48828 21.8945 7.07813 22.2227 7.71484 22.4883C9.25781 23.1328 11.3047 23.5 13.5 23.5Z" fill="#007AFF"/>
</svg>
