<svg width="13" height="18" viewBox="0 0 13 18" fill="none" xmlns="http://www.w3.org/2000/svg">
<path d="M10.2621 1.92452C10.4528 1.48164 10.3106 0.964395 9.91944 0.679913C9.52828 0.39543 8.99487 0.421292 8.62957 0.738102L0.353711 7.97948C0.0304349 8.26396 -0.0859445 8.71978 0.0659952 9.12065C0.217935 9.52151 0.605866 9.79306 1.03582 9.79306H4.64035L2.15436 15.5926C1.96362 16.0355 2.10587 16.5528 2.49703 16.8372C2.88819 17.1217 3.4216 17.0959 3.7869 16.7791L12.0628 9.53767C12.386 9.25319 12.5024 8.79737 12.3505 8.39651C12.1985 7.99565 11.8138 7.72733 11.3807 7.72733H7.77613L10.2621 1.92452Z" fill="white"/>
</svg>
