<svg width="32" height="32" viewBox="0 0 32 32" fill="none" xmlns="http://www.w3.org/2000/svg">
<path d="M16 0C24.8366 0 32 7.16344 32 16C32 24.8366 24.8366 32 16 32C7.16344 32 0 24.8366 0 16C0 7.16344 7.16344 0 16 0Z" fill="#50C878"/>
<path d="M16 0C24.8366 0 32 7.16344 32 16C32 24.8366 24.8366 32 16 32C7.16344 32 0 24.8366 0 16C0 7.16344 7.16344 0 16 0Z" stroke="#E5E7EB"/>
<path d="M16.6021 10.375C16.4917 10.1458 16.2584 10 16.0021 10C15.7459 10 15.5146 10.1458 15.4021 10.375L14.0626 13.1313L11.0709 13.5729C10.8209 13.6104 10.6126 13.7854 10.5355 14.025C10.4584 14.2646 10.5209 14.5292 10.7001 14.7063L12.8709 16.8542L12.3584 19.8896C12.3167 20.1396 12.4209 20.3938 12.6271 20.5417C12.8334 20.6896 13.1063 20.7083 13.3313 20.5896L16.0042 19.1625L18.6771 20.5896C18.9021 20.7083 19.1751 20.6917 19.3813 20.5417C19.5876 20.3917 19.6917 20.1396 19.6501 19.8896L19.1355 16.8542L21.3063 14.7063C21.4855 14.5292 21.5501 14.2646 21.4709 14.025C21.3917 13.7854 21.1855 13.6104 20.9355 13.5729L17.9417 13.1313L16.6021 10.375Z" fill="url(#paint0_linear_2082_86)"/>
<defs>
<linearGradient id="paint0_linear_2082_86" x1="6.61355" y1="13.7717" x2="14.1533" y2="21.547" gradientUnits="userSpaceOnUse">
<stop/>
<stop offset="0.5" stop-color="#111827"/>
<stop offset="1" stop-color="#1F2937"/>
</linearGradient>
</defs>
</svg>
