<svg width="49" height="49" viewBox="0 0 49 49" fill="none" xmlns="http://www.w3.org/2000/svg">
<path d="M0.5 12.75C0.5 6.12258 5.87258 0.75 12.5 0.75H36.5C43.1274 0.75 48.5 6.12258 48.5 12.75V36.75C48.5 43.3774 43.1274 48.75 36.5 48.75H12.5C5.87258 48.75 0.5 43.3774 0.5 36.75V12.75Z" fill="white" fill-opacity="0.1"/>
<path d="M32.375 38.75H16.625V10.75H32.375V38.75Z" stroke="#E5E7EB"/>
<g clip-path="url(#clip0_2283_272)">
<path d="M24.5 24C25.6935 24 26.8381 23.5259 27.682 22.682C28.5259 21.8381 29 20.6935 29 19.5C29 18.3065 28.5259 17.1619 27.682 16.318C26.8381 15.4741 25.6935 15 24.5 15C23.3065 15 22.1619 15.4741 21.318 16.318C20.4741 17.1619 20 18.3065 20 19.5C20 20.6935 20.4741 21.8381 21.318 22.682C22.1619 23.5259 23.3065 24 24.5 24ZM22.8934 25.6875C19.4305 25.6875 16.625 28.493 16.625 31.9559C16.625 32.5324 17.0926 33 17.6691 33H31.3309C31.9074 33 32.375 32.5324 32.375 31.9559C32.375 28.493 29.5695 25.6875 26.1066 25.6875H22.8934Z" fill="white"/>
</g>
<defs>
<clipPath id="clip0_2283_272">
<path d="M16.625 15H32.375V33H16.625V15Z" fill="white"/>
</clipPath>
</defs>
</svg>
