<svg width="49" height="49" viewBox="0 0 49 49" fill="none" xmlns="http://www.w3.org/2000/svg">
<path d="M0.5 12.625C0.5 5.99758 5.87258 0.625 12.5 0.625H36.5C43.1274 0.625 48.5 5.99758 48.5 12.625V36.625C48.5 43.2524 43.1274 48.625 36.5 48.625H12.5C5.87258 48.625 0.5 43.2524 0.5 36.625V12.625Z" fill="white" fill-opacity="0.1"/>
<path d="M31.25 38.625H17.75V10.625H31.25V38.625Z" stroke="#E5E7EB"/>
<g clip-path="url(#clip0_6011_407)">
<path d="M19.4375 14.875C18.5059 14.875 17.75 15.6309 17.75 16.5625V31.1875C17.75 32.1191 18.5059 32.875 19.4375 32.875H22.8125V30.0625C22.8125 29.1309 23.5684 28.375 24.5 28.375C25.4316 28.375 26.1875 29.1309 26.1875 30.0625V32.875H29.5625C30.4941 32.875 31.25 32.1191 31.25 31.1875V16.5625C31.25 15.6309 30.4941 14.875 29.5625 14.875H19.4375ZM20 23.3125C20 23.0031 20.2531 22.75 20.5625 22.75H21.6875C21.9969 22.75 22.25 23.0031 22.25 23.3125V24.4375C22.25 24.7469 21.9969 25 21.6875 25H20.5625C20.2531 25 20 24.7469 20 24.4375V23.3125ZM23.9375 22.75H25.0625C25.3719 22.75 25.625 23.0031 25.625 23.3125V24.4375C25.625 24.7469 25.3719 25 25.0625 25H23.9375C23.6281 25 23.375 24.7469 23.375 24.4375V23.3125C23.375 23.0031 23.6281 22.75 23.9375 22.75ZM26.75 23.3125C26.75 23.0031 27.0031 22.75 27.3125 22.75H28.4375C28.7469 22.75 29 23.0031 29 23.3125V24.4375C29 24.7469 28.7469 25 28.4375 25H27.3125C27.0031 25 26.75 24.7469 26.75 24.4375V23.3125ZM20.5625 18.25H21.6875C21.9969 18.25 22.25 18.5031 22.25 18.8125V19.9375C22.25 20.2469 21.9969 20.5 21.6875 20.5H20.5625C20.2531 20.5 20 20.2469 20 19.9375V18.8125C20 18.5031 20.2531 18.25 20.5625 18.25ZM23.375 18.8125C23.375 18.5031 23.6281 18.25 23.9375 18.25H25.0625C25.3719 18.25 25.625 18.5031 25.625 18.8125V19.9375C25.625 20.2469 25.3719 20.5 25.0625 20.5H23.9375C23.6281 20.5 23.375 20.2469 23.375 19.9375V18.8125ZM27.3125 18.25H28.4375C28.7469 18.25 29 18.5031 29 18.8125V19.9375C29 20.2469 28.7469 20.5 28.4375 20.5H27.3125C27.0031 20.5 26.75 20.2469 26.75 19.9375V18.8125C26.75 18.5031 27.0031 18.25 27.3125 18.25Z" fill="white"/>
</g>
<defs>
<clipPath id="clip0_6011_407">
<path d="M17.75 14.875H31.25V32.875H17.75V14.875Z" fill="white"/>
</clipPath>
</defs>
</svg>
