<svg width="48" height="48" viewBox="0 0 48 48" fill="none" xmlns="http://www.w3.org/2000/svg">
<path d="M0 8C0 3.58172 3.58172 0 8 0H40C44.4183 0 48 3.58172 48 8V40C48 44.4183 44.4183 48 40 48H8C3.58172 48 0 44.4183 0 40V8Z" fill="#F97316"/>
<path d="M17.3828 16.5L20.7109 19.8281C21.5977 18.7539 22.125 17.375 22.125 15.875C22.125 15.3008 22.0469 14.7461 21.9023 14.2188C20.1953 14.5859 18.6484 15.3867 17.3828 16.5ZM16.5 17.3828C15.3867 18.6484 14.5859 20.1953 14.2188 21.9023C14.7461 22.0469 15.3008 22.125 15.875 22.125C17.375 22.125 18.7539 21.5977 19.832 20.7148L16.5 17.3828ZM24 14C23.7148 14 23.4297 14.0117 23.1484 14.0352C23.2969 14.625 23.375 15.2422 23.375 15.875C23.375 17.7227 22.707 19.4102 21.6016 20.7188L24 23.1172L30.6172 16.5C28.8516 14.9453 26.5352 14 24 14ZM15.875 23.375C15.2422 23.375 14.625 23.2969 14.0352 23.1484C14.0117 23.4297 14 23.7148 14 24C14 26.5352 14.9453 28.8516 16.5 30.6172L23.1172 24L20.7188 21.6016C19.4102 22.707 17.7227 23.375 15.875 23.375ZM33.9648 24.8516C33.9883 24.5703 34 24.2852 34 24C34 21.4648 33.0547 19.1484 31.5 17.3828L24.8828 24L27.2812 26.3984C28.5859 25.293 30.2773 24.625 32.125 24.625C32.7578 24.625 33.375 24.7031 33.9648 24.8516ZM33.7812 26.0977C33.2539 25.9531 32.6992 25.875 32.125 25.875C30.625 25.875 29.2461 26.4023 28.168 27.2852L31.5 30.6172C32.6133 29.3555 33.418 27.8086 33.7812 26.0977ZM27.2852 28.168C26.4023 29.2461 25.875 30.625 25.875 32.125C25.875 32.6992 25.9531 33.2539 26.0977 33.7812C27.8047 33.4141 29.3516 32.6133 30.6172 31.5L27.2891 28.1719L27.2852 28.168ZM26.3984 27.2812L24 24.8828L17.3828 31.5C19.1445 33.0547 21.4609 34 24 34C24.2852 34 24.5703 33.9883 24.8516 33.9648C24.7031 33.375 24.625 32.7578 24.625 32.125C24.625 30.2773 25.293 28.5898 26.3984 27.2812Z" fill="white"/>
</svg>
