<svg width="48" height="48" viewBox="0 0 48 48" fill="none" xmlns="http://www.w3.org/2000/svg">
<path d="M0 8C0 3.58172 3.58172 0 8 0H40C44.4183 0 48 3.58172 48 8V40C48 44.4183 44.4183 48 40 48H8C3.58172 48 0 44.4183 0 40V8Z" fill="#2563EB"/>
<path d="M30.3008 28.0664L27.5039 27.8789C27.3008 27.8672 27.1016 27.9219 26.9375 28.043C26.7734 28.1641 26.6562 28.332 26.6094 28.5312L25.9219 31.25C25.3086 31.4141 24.6641 31.5 24 31.5C23.3359 31.5 22.6914 31.4141 22.0781 31.25L21.3906 28.5312C21.3398 28.3359 21.2227 28.1641 21.0625 28.043C20.9023 27.9219 20.6992 27.8672 20.4961 27.8789L17.6992 28.0664C17.0117 27.0039 16.5859 25.7539 16.5117 24.4102L18.8828 22.918C19.0547 22.8086 19.1797 22.6445 19.2422 22.4531C19.3047 22.2617 19.2969 22.0547 19.2227 21.8672L18.1797 19.2656C19 18.2656 20.0664 17.4766 21.293 17.0039L23.4492 18.8008C23.6055 18.9297 23.8008 19 24 19C24.1992 19 24.3984 18.9297 24.5508 18.8008L26.707 17.0039C27.9297 17.4766 29 18.2656 29.8164 19.2656L28.7734 21.8672C28.6992 22.0547 28.6914 22.2617 28.7539 22.4531C28.8164 22.6445 28.9453 22.8086 29.1133 22.918L31.4844 24.4102C31.4102 25.7539 30.9844 27.0039 30.2969 28.0664H30.3008ZM24 34C26.6522 34 29.1957 32.9464 31.0711 31.0711C32.9464 29.1957 34 26.6522 34 24C34 21.3478 32.9464 18.8043 31.0711 16.9289C29.1957 15.0536 26.6522 14 24 14C21.3478 14 18.8043 15.0536 16.9289 16.9289C15.0536 18.8043 14 21.3478 14 24C14 26.6522 15.0536 29.1957 16.9289 31.0711C18.8043 32.9464 21.3478 34 24 34ZM24.5508 21.2773C24.2227 21.0391 23.7773 21.0391 23.4492 21.2773L21.5781 22.6328C21.25 22.8711 21.1133 23.293 21.2383 23.6797L21.9531 25.8789C22.0781 26.2656 22.4375 26.5273 22.8438 26.5273H25.1562C25.5625 26.5273 25.9219 26.2656 26.0469 25.8789L26.7617 23.6797C26.8867 23.293 26.75 22.8711 26.4219 22.6328L24.5508 21.2734V21.2773Z" fill="white"/>
</svg>
