<svg width="48" height="48" viewBox="0 0 48 48" fill="none" xmlns="http://www.w3.org/2000/svg">
<path d="M0 8C0 3.58172 3.58172 0 8 0H40C44.4183 0 48 3.58172 48 8V40C48 44.4183 44.4183 48 40 48H8C3.58172 48 0 44.4183 0 40V8Z" fill="#50C878"/>
<path d="M30.2505 25.25C28.2934 25.25 26.5942 26.375 25.7739 28.0156L16.6919 18.9336L16.7153 18.9102L19.063 16.5625C22.4809 13.1445 28.02 13.1445 31.438 16.5625C34.0591 19.1836 34.6684 23.0586 33.2661 26.2617C32.4302 25.625 31.3833 25.25 30.2505 25.25ZM15.9263 19.9336L25.3325 29.3398C25.2778 29.6328 25.2505 29.9375 25.2505 30.25C25.2505 31.1562 25.4927 32.0039 25.9106 32.7383C25.7934 32.7461 25.6723 32.75 25.5513 32.75H25.4458C24.1216 32.75 22.8481 32.2227 21.9106 31.2852L21.5278 30.9023C21.0161 30.3906 20.1763 30.418 19.6997 30.9688L17.4458 33.5703C17.2192 33.832 16.8911 33.9883 16.5473 34C16.2036 34.0117 15.8638 33.8789 15.6177 33.6328L14.3677 32.3828C14.1216 32.1367 13.9888 31.8008 14.0005 31.4531C14.0122 31.1055 14.1684 30.7812 14.4302 30.5547L17.0317 28.3008C17.5786 27.8242 17.6098 26.9844 17.0981 26.4727L16.7153 26.0898C15.7778 25.1523 15.2505 23.8789 15.2505 22.5547V22.4492C15.2505 21.5586 15.4888 20.6953 15.9263 19.9375V19.9336ZM30.2505 26.5C31.245 26.5 32.1989 26.8951 32.9021 27.5983C33.6054 28.3016 34.0005 29.2554 34.0005 30.25C34.0005 31.2446 33.6054 32.1984 32.9021 32.9017C32.1989 33.6049 31.245 34 30.2505 34C29.2559 34 28.3021 33.6049 27.5988 32.9017C26.8956 32.1984 26.5005 31.2446 26.5005 30.25C26.5005 29.2554 26.8956 28.3016 27.5988 27.5983C28.3021 26.8951 29.2559 26.5 30.2505 26.5Z" fill="white"/>
</svg>
