<svg width="17" height="12" viewBox="0 0 17 12" fill="none" xmlns="http://www.w3.org/2000/svg">
<path d="M1.43978 4.57768C3.27291 2.80446 5.7596 1.71429 8.50133 1.71429C11.2431 1.71429 13.7297 2.80446 15.5629 4.57768C15.9029 4.90446 16.4396 4.89375 16.7637 4.55357C17.0878 4.21339 17.0772 3.66964 16.7398 3.34286C14.6038 1.27232 11.7 0 8.50133 0C5.30264 0 2.39885 1.27232 0.260195 3.34018C-0.0772078 3.66964 -0.0878347 4.21071 0.236285 4.55357C0.560404 4.89643 1.09972 4.90714 1.43712 4.57768H1.43978ZM8.50133 6C10.0103 6 11.3865 6.56518 12.4386 7.5C12.7919 7.81339 13.3286 7.77857 13.6394 7.425C13.9503 7.07143 13.9157 6.52768 13.565 6.21429C12.2154 5.01429 10.4407 4.28571 8.50133 4.28571C6.56193 4.28571 4.78724 5.01429 3.44028 6.21429C3.08694 6.52768 3.05506 7.06875 3.3659 7.425C3.67673 7.78125 4.21339 7.81339 4.56673 7.5C5.61613 6.56518 6.99231 6 8.50399 6H8.50133ZM10.2016 10.2857C10.2016 9.83106 10.0225 9.39502 9.70362 9.07353C9.38475 8.75204 8.95228 8.57143 8.50133 8.57143C8.05038 8.57143 7.6179 8.75204 7.29904 9.07353C6.98017 9.39502 6.80103 9.83106 6.80103 10.2857C6.80103 10.7404 6.98017 11.1764 7.29904 11.4979C7.6179 11.8194 8.05038 12 8.50133 12C8.95228 12 9.38475 11.8194 9.70362 11.4979C10.0225 11.1764 10.2016 10.7404 10.2016 10.2857Z" fill="white"/>
</svg>
