<svg width="16" height="14" viewBox="0 0 16 14" fill="none" xmlns="http://www.w3.org/2000/svg">
<path d="M2 3.12187C2 2.50312 2.50313 2 3.12188 2C3.41875 2 3.70312 2.11875 3.91563 2.32812L4.42188 2.83437C3.76562 4.05 3.87812 5.56875 4.7625 6.67812L4.71875 6.71875C4.425 7.0125 4.425 7.4875 4.71875 7.77812C5.0125 8.06875 5.4875 8.07187 5.77812 7.77812L10.7812 2.78125C11.075 2.4875 11.075 2.0125 10.7812 1.72187C10.4875 1.43125 10.0125 1.42812 9.72188 1.72187L9.68125 1.7625C8.57187 0.878125 7.05 0.765625 5.8375 1.42188L5.32812 0.915625C4.74375 0.328125 3.95 0 3.12188 0C1.39688 0 0 1.39687 0 3.12187V13C0 13.5531 0.446875 14 1 14C1.55313 14 2 13.5531 2 13V3.12187ZM8 10C8.26522 10 8.51957 9.89464 8.70711 9.70711C8.89464 9.51957 9 9.26522 9 9C9 8.73478 8.89464 8.48043 8.70711 8.29289C8.51957 8.10536 8.26522 8 8 8C7.73478 8 7.48043 8.10536 7.29289 8.29289C7.10536 8.48043 7 8.73478 7 9C7 9.26522 7.10536 9.51957 7.29289 9.70711C7.48043 9.89464 7.73478 10 8 10ZM10 12C10 11.7348 9.89464 11.4804 9.70711 11.2929C9.51957 11.1054 9.26522 11 9 11C8.73478 11 8.48043 11.1054 8.29289 11.2929C8.10536 11.4804 8 11.7348 8 12C8 12.2652 8.10536 12.5196 8.29289 12.7071C8.48043 12.8946 8.73478 13 9 13C9.26522 13 9.51957 12.8946 9.70711 12.7071C9.89464 12.5196 10 12.2652 10 12ZM10 8C10.2652 8 10.5196 7.89464 10.7071 7.70711C10.8946 7.51957 11 7.26522 11 7C11 6.73478 10.8946 6.48043 10.7071 6.29289C10.5196 6.10536 10.2652 6 10 6C9.73478 6 9.48043 6.10536 9.29289 6.29289C9.10536 6.48043 9 6.73478 9 7C9 7.26522 9.10536 7.51957 9.29289 7.70711C9.48043 7.89464 9.73478 8 10 8ZM12 10C12 9.73478 11.8946 9.48043 11.7071 9.29289C11.5196 9.10536 11.2652 9 11 9C10.7348 9 10.4804 9.10536 10.2929 9.29289C10.1054 9.48043 10 9.73478 10 10C10 10.2652 10.1054 10.5196 10.2929 10.7071C10.4804 10.8946 10.7348 11 11 11C11.2652 11 11.5196 10.8946 11.7071 10.7071C11.8946 10.5196 12 10.2652 12 10ZM12 6C12.2652 6 12.5196 5.89464 12.7071 5.70711C12.8946 5.51957 13 5.26522 13 5C13 4.73478 12.8946 4.48043 12.7071 4.29289C12.5196 4.10536 12.2652 4 12 4C11.7348 4 11.4804 4.10536 11.2929 4.29289C11.1054 4.48043 11 4.73478 11 5C11 5.26522 11.1054 5.51957 11.2929 5.70711C11.4804 5.89464 11.7348 6 12 6ZM14 8C14 7.73478 13.8946 7.48043 13.7071 7.29289C13.5196 7.10536 13.2652 7 13 7C12.7348 7 12.4804 7.10536 12.2929 7.29289C12.1054 7.48043 12 7.73478 12 8C12 8.26522 12.1054 8.51957 12.2929 8.70711C12.4804 8.89464 12.7348 9 13 9C13.2652 9 13.5196 8.89464 13.7071 8.70711C13.8946 8.51957 14 8.26522 14 8ZM15 7C15.2652 7 15.5196 6.89464 15.7071 6.70711C15.8946 6.51957 16 6.26522 16 6C16 5.73478 15.8946 5.48043 15.7071 5.29289C15.5196 5.10536 15.2652 5 15 5C14.7348 5 14.4804 5.10536 14.2929 5.29289C14.1054 5.48043 14 5.73478 14 6C14 6.26522 14.1054 6.51957 14.2929 6.70711C14.4804 6.89464 14.7348 7 15 7Z" fill="url(#paint0_linear_2286_492)"/>
<defs>
<linearGradient id="paint0_linear_2286_492" x1="-5.65685" y1="4.94975" x2="4.15503" y2="16.1633" gradientUnits="userSpaceOnUse">
<stop stop-color="white"/>
<stop offset="1" stop-color="#F9FAFB"/>
</linearGradient>
</defs>
</svg>
