<svg width="16" height="14" viewBox="0 0 16 14" fill="none" xmlns="http://www.w3.org/2000/svg">
<path d="M4.225 2.66875L3.40937 5H12.5906L11.775 2.66875C11.6344 2.26875 11.2563 2 10.8313 2H5.16875C4.74375 2 4.36562 2.26875 4.225 2.66875ZM1.2375 5.15L2.3375 2.00938C2.75938 0.80625 3.89375 0 5.16875 0H10.8313C12.1062 0 13.2406 0.80625 13.6625 2.00938L14.7625 5.15C15.4875 5.45 16 6.16563 16 7V11.5V13C16 13.5531 15.5531 14 15 14H14C13.4469 14 13 13.5531 13 13V11.5H3V13C3 13.5531 2.55312 14 2 14H1C0.446875 14 0 13.5531 0 13V11.5V7C0 6.16563 0.5125 5.45 1.2375 5.15ZM4 8C4 7.73478 3.89464 7.48043 3.70711 7.29289C3.51957 7.10536 3.26522 7 3 7C2.73478 7 2.48043 7.10536 2.29289 7.29289C2.10536 7.48043 2 7.73478 2 8C2 8.26522 2.10536 8.51957 2.29289 8.70711C2.48043 8.89464 2.73478 9 3 9C3.26522 9 3.51957 8.89464 3.70711 8.70711C3.89464 8.51957 4 8.26522 4 8ZM13 9C13.2652 9 13.5196 8.89464 13.7071 8.70711C13.8946 8.51957 14 8.26522 14 8C14 7.73478 13.8946 7.48043 13.7071 7.29289C13.5196 7.10536 13.2652 7 13 7C12.7348 7 12.4804 7.10536 12.2929 7.29289C12.1054 7.48043 12 7.73478 12 8C12 8.26522 12.1054 8.51957 12.2929 8.70711C12.4804 8.89464 12.7348 9 13 9Z" fill="white"/>
</svg>
